<svg width="36" height="36" viewBox="0 0 36 36" fill="none" xmlns="http://www.w3.org/2000/svg">
<path d="M13.5 18.0007H22.5" stroke="#4B5563" stroke-width="2.5" stroke-linecap="round" stroke-linejoin="round"/>
<path d="M13.5 22.5007H22.5" stroke="#4B5563" stroke-width="2.5" stroke-linecap="round" stroke-linejoin="round"/>
<path d="M7.875 5.62573H28.125C28.4234 5.62573 28.7095 5.74426 28.9205 5.95524C29.1315 6.16622 29.25 6.45236 29.25 6.75073V28.1257C29.25 29.0208 28.8944 29.8793 28.2615 30.5122C27.6286 31.1452 26.7701 31.5007 25.875 31.5007H10.125C9.22989 31.5007 8.37145 31.1452 7.73851 30.5122C7.10558 29.8793 6.75 29.0208 6.75 28.1257V6.75073C6.75 6.45236 6.86853 6.16622 7.07951 5.95524C7.29048 5.74426 7.57663 5.62573 7.875 5.62573Z" stroke="#4B5563" stroke-width="2.5" stroke-linecap="round" stroke-linejoin="round"/>
<path d="M11.25 3.37573V7.87573" stroke="#4B5563" stroke-width="2.5" stroke-linecap="round" stroke-linejoin="round"/>
<path d="M18 3.37573V7.87573" stroke="#4B5563" stroke-width="2.5" stroke-linecap="round" stroke-linejoin="round"/>
<path d="M24.75 3.37573V7.87573" stroke="#4B5563" stroke-width="2.5" stroke-linecap="round" stroke-linejoin="round"/>
</svg>
