<svg width="16" height="16" viewBox="0 0 16 16" fill="none" xmlns="http://www.w3.org/2000/svg">
<path d="M8.66671 7.33325V3.99992C8.66671 3.82311 8.59647 3.65354 8.47145 3.52851C8.34642 3.40349 8.17685 3.33325 8.00004 3.33325C7.82323 3.33325 7.65366 3.40349 7.52864 3.52851C7.40361 3.65354 7.33337 3.82311 7.33337 3.99992V7.99992C7.33337 8.17673 7.40361 8.3463 7.52864 8.47132C7.65366 8.59635 7.82323 8.66659 8.00004 8.66659H11.3334C11.5102 8.66659 11.6798 8.59635 11.8048 8.47132C11.9298 8.3463 12 8.17673 12 7.99992C12 7.82311 11.9298 7.65354 11.8048 7.52851C11.6798 7.40349 11.5102 7.33325 11.3334 7.33325H8.66671ZM8.00004 14.6666C4.31804 14.6666 1.33337 11.6819 1.33337 7.99992C1.33337 4.31792 4.31804 1.33325 8.00004 1.33325C11.682 1.33325 14.6667 4.31792 14.6667 7.99992C14.6667 11.6819 11.682 14.6666 8.00004 14.6666Z" fill="#32B768"/>
</svg>
