<svg width="22" height="22" viewBox="0 0 22 22" fill="none" xmlns="http://www.w3.org/2000/svg">
<path d="M11.3438 18.5618H4.09635C3.92162 18.5618 3.75403 18.4924 3.63047 18.3688C3.50691 18.2452 3.4375 18.0777 3.4375 17.9029V10.6555C3.4375 9.61724 3.642 8.58915 4.03933 7.62992C4.43665 6.67069 5.01902 5.79911 5.75318 5.06495C6.48734 4.33079 7.35892 3.74842 8.31815 3.35109C9.27738 2.95377 10.3055 2.74927 11.3437 2.74927H11.3438C12.382 2.74927 13.4101 2.95377 14.3693 3.3511C15.3286 3.74842 16.2001 4.33079 16.9343 5.06495C17.6685 5.79912 18.2508 6.6707 18.6482 7.62993C19.0455 8.58916 19.25 9.61725 19.25 10.6555V10.6555C19.25 12.7524 18.417 14.7634 16.9343 16.2461C15.4516 17.7288 13.4406 18.5618 11.3438 18.5618Z" stroke="#374151" stroke-width="1.5" stroke-linecap="round" stroke-linejoin="round"/>
<path d="M8.59375 9.62427H13.75" stroke="#374151" stroke-width="1.5" stroke-linecap="round" stroke-linejoin="round"/>
<path d="M8.59375 12.3743H13.75" stroke="#374151" stroke-width="1.5" stroke-linecap="round" stroke-linejoin="round"/>
</svg>
