<svg width="36" height="36" viewBox="0 0 36 36" fill="none" xmlns="http://www.w3.org/2000/svg">
<path d="M28.5 13.0649L20.5005 6.8429C19.7985 6.29676 18.9345 6.00024 18.045 6.00024C17.1556 6.00024 16.2916 6.29676 15.5895 6.8429L7.58854 13.0649C7.10771 13.4388 6.71868 13.9177 6.45118 14.4649C6.18367 15.0122 6.04476 15.6133 6.04504 16.2224V27.0224C6.04504 27.818 6.36111 28.5811 6.92372 29.1437C7.48633 29.7063 8.24939 30.0224 9.04504 30.0224H27.045C27.8407 30.0224 28.6038 29.7063 29.1664 29.1437C29.729 28.5811 30.045 27.818 30.045 27.0224V16.2224C30.045 14.9879 29.475 13.8224 28.5 13.0649Z" stroke="#4B5563" stroke-width="2.5" stroke-linecap="round" stroke-linejoin="round"/>
<path d="M24 22.5C20.685 24.4995 15.312 24.4995 12 22.5" stroke="#4B5563" stroke-width="2.5" stroke-linecap="round" stroke-linejoin="round"/>
</svg>
