<svg width="19" height="17" viewBox="0 0 19 17" fill="none" xmlns="http://www.w3.org/2000/svg">
<path d="M1 1.99976C1 1.44747 1.44772 0.999756 2 0.999756H17C17.5523 0.999756 18 1.44747 18 1.99976V11.8179C18 12.3702 17.5523 12.8179 17 12.8179H12.486C12.1792 12.8179 11.8893 12.9588 11.6997 13.2001L10.2863 14.999C9.88594 15.5086 9.11406 15.5086 8.71368 14.999L7.30028 13.2001C7.1107 12.9588 6.82083 12.8179 6.51396 12.8179H2C1.44772 12.8179 1 12.3702 1 11.8179V1.99976Z" stroke="#374151" stroke-width="1.5" stroke-linejoin="round"/>
<path d="M6 9.99976L6.83916 7.84591M12 9.99976L10.9091 7.84591M6.83916 7.84591L8.55423 3.4439C8.6186 3.27869 8.85017 3.27273 8.92296 3.4344L10.9091 7.84591M6.83916 7.84591H10.9091" stroke="#374151" stroke-width="1.5" stroke-linecap="round" stroke-linejoin="round"/>
</svg>
