<svg width="16" height="16" viewBox="0 0 16 16" fill="none" xmlns="http://www.w3.org/2000/svg">
<path d="M7.99963 0.999756C6.54147 1.00149 5.14353 1.5815 4.11246 2.61258C3.08138 3.64365 2.50136 5.0416 2.49963 6.49976C2.49963 11.2058 7.49963 14.7605 7.71252 14.9094C7.79672 14.9682 7.89694 14.9998 7.99963 14.9998C8.10233 14.9998 8.20255 14.9682 8.28674 14.9094C8.49963 14.7605 13.4996 11.2058 13.4996 6.49976C13.4979 5.0416 12.9179 3.64366 11.8868 2.61258C10.8557 1.5815 9.45779 1.00149 7.99963 0.999756ZM8 4.49994C8.39556 4.49994 8.78224 4.61724 9.11114 4.837C9.44004 5.05676 9.69638 5.36912 9.84776 5.73457C9.99913 6.10002 10.0387 6.50216 9.96157 6.89012C9.8844 7.27808 9.69392 7.63445 9.41421 7.91415C9.13451 8.19386 8.77814 8.38434 8.39018 8.46151C8.00222 8.53868 7.60009 8.49907 7.23463 8.3477C6.86918 8.19632 6.55682 7.93998 6.33706 7.61108C6.1173 7.28218 6 6.8955 6 6.49994C5.99999 6.23729 6.05172 5.97722 6.15223 5.73456C6.25273 5.49191 6.40005 5.27143 6.58577 5.08571C6.77149 4.89999 6.99197 4.75267 7.23462 4.65216C7.47728 4.55166 7.73735 4.49993 8 4.49994Z" fill="#32B768"/>
</svg>
