<svg width="19" height="19" viewBox="0 0 19 19" fill="none" xmlns="http://www.w3.org/2000/svg">
<path d="M8.70841 3.95826H4.75008C4.33016 3.95826 3.92743 4.12507 3.6305 4.42201C3.33356 4.71894 3.16675 5.12167 3.16675 5.54159V14.2499C3.16675 14.6699 3.33356 15.0726 3.6305 15.3695C3.92743 15.6664 4.33016 15.8333 4.75008 15.8333H13.4584C13.8783 15.8333 14.2811 15.6664 14.578 15.3695C14.8749 15.0726 15.0417 14.6699 15.0417 14.2499V10.2916M13.9223 2.83884C14.0684 2.68762 14.2431 2.567 14.4363 2.48401C14.6294 2.40103 14.8372 2.35736 15.0474 2.35553C15.2577 2.3537 15.4662 2.39376 15.6608 2.47337C15.8553 2.55299 16.0321 2.67055 16.1808 2.81922C16.3295 2.96788 16.447 3.14466 16.5266 3.33925C16.6062 3.53383 16.6463 3.74233 16.6445 3.95256C16.6427 4.16279 16.599 4.37056 16.516 4.56373C16.433 4.75691 16.3124 4.93162 16.1612 5.07768L9.36391 11.8749H7.12508V9.63609L13.9223 2.83884Z" stroke="#374151" stroke-width="1.5" stroke-linecap="round" stroke-linejoin="round"/>
</svg>
