<svg width="32" height="32" viewBox="0 0 32 32" fill="none" xmlns="http://www.w3.org/2000/svg">
<path d="M21.3333 9.33333C21.3333 10.7478 20.7714 12.1044 19.7712 13.1046C18.771 14.1048 17.4145 14.6667 16 14.6667C14.5855 14.6667 13.2289 14.1048 12.2288 13.1046C11.2286 12.1044 10.6667 10.7478 10.6667 9.33333C10.6667 7.91885 11.2286 6.56229 12.2288 5.5621C13.2289 4.5619 14.5855 4 16 4C17.4145 4 18.771 4.5619 19.7712 5.5621C20.7714 6.56229 21.3333 7.91885 21.3333 9.33333V9.33333ZM16 18.6667C13.5246 18.6667 11.1507 19.65 9.40033 21.4003C7.64999 23.1507 6.66666 25.5246 6.66666 28H25.3333C25.3333 25.5246 24.35 23.1507 22.5997 21.4003C20.8493 19.65 18.4753 18.6667 16 18.6667V18.6667Z" stroke="#4B5563" stroke-width="2.5" stroke-linecap="round" stroke-linejoin="round"/>
</svg>
