<svg width="20" height="21" viewBox="0 0 20 21" fill="none" xmlns="http://www.w3.org/2000/svg">
<path d="M12.8571 10.5C11.2785 12.5 8.71997 12.5 7.14282 10.5" stroke="#374151" stroke-width="1.5" stroke-linecap="round" stroke-linejoin="round"/>
<path d="M8.43832 3.47472C9.12987 2.26816 10.8701 2.26816 11.5617 3.47472L12.9069 5.82182C13.1525 6.25031 13.5634 6.55907 14.0433 6.67577L16.7162 7.32579C18.0077 7.63986 18.5251 9.19732 17.6782 10.2217L15.7929 12.5022C15.4935 12.8643 15.3476 13.3291 15.3863 13.7974L15.6276 16.717C15.7403 18.08 14.3517 19.0658 13.1021 18.5099L10.7316 17.4554C10.2659 17.2483 9.73414 17.2483 9.26841 17.4554L6.89786 18.5099C5.64829 19.0658 4.25974 18.08 4.37239 16.717L4.61372 13.7974C4.65242 13.3291 4.5065 12.8643 4.20713 12.5022L2.3218 10.2217C1.4749 9.19732 1.99225 7.63986 3.28377 7.32579L5.95673 6.67577C6.43662 6.55907 6.84749 6.25031 7.09308 5.82182L8.43832 3.47472Z" stroke="#374151" stroke-width="1.5" stroke-linejoin="round"/>
</svg>
